<!-- Generated by IcoMoon.io -->
<svg version="1.1" xmlns="http://www.w3.org/2000/svg" width="59" height="32" viewBox="0 0 59 32">
<title>Client-3-1</title>
<path d="M23.794 22.644c0.006 0 0.011 0.001 0.016 0.003l-0-0c0.005 0.002 0.010 0.005 0.013 0.008l-0-0 0.076 0.073c-0.059 0.059-0.132 0.106-0.213 0.138-0.084 0.031-0.181 0.050-0.283 0.050-0.007 0-0.014-0-0.020-0l0.001 0c-0.005 0-0.010 0-0.015 0-0.096 0-0.189-0.017-0.275-0.048l0.006 0.002c-0.081-0.030-0.154-0.074-0.214-0.13-0.061-0.058-0.108-0.127-0.138-0.201s-0.048-0.16-0.048-0.25c0-0.003 0-0.006 0-0.008v0c-0-0.003-0-0.006-0-0.009 0-0.090 0.019-0.177 0.054-0.254l-0.002 0.004c0.033-0.075 0.083-0.143 0.147-0.201 0.065-0.057 0.142-0.101 0.228-0.131s0.182-0.046 0.283-0.046c0.003 0 0.007 0 0.010 0h-0c0.005-0 0.011-0 0.017-0 0.091 0 0.179 0.015 0.26 0.044l-0.006-0.002c0.075 0.028 0.144 0.068 0.204 0.116l-0.064 0.077c-0.005 0.006-0.010 0.010-0.016 0.014l-0 0c-0.006 0.004-0.014 0.006-0.022 0.006-0.001 0-0.003-0-0.004-0h0c-0.010-0.001-0.020-0.004-0.028-0.008l0 0-0.034-0.021-0.047-0.026c-0.017-0.008-0.038-0.017-0.060-0.024l-0.004-0.001c-0.024-0.008-0.053-0.015-0.082-0.020l-0.004-0.001c-0.031-0.005-0.067-0.008-0.104-0.008-0.003 0-0.006 0-0.009 0h0c-0.002-0-0.005-0-0.008-0-0.073 0-0.143 0.013-0.207 0.036l0.004-0.001c-0.062 0.022-0.119 0.055-0.165 0.097-0.047 0.045-0.084 0.098-0.107 0.155-0.025 0.058-0.039 0.126-0.039 0.198 0 0.002 0 0.005 0 0.007v-0c-0 0.002-0 0.005-0 0.008 0 0.072 0.014 0.141 0.040 0.203l-0.001-0.004c0.023 0.057 0.059 0.109 0.105 0.154 0.043 0.042 0.097 0.075 0.157 0.096 0.062 0.022 0.128 0.034 0.195 0.033 0.003 0 0.007 0 0.011 0 0.037 0 0.073-0.002 0.109-0.007l-0.004 0c0.065-0.007 0.125-0.027 0.178-0.056l-0.002 0.001c0.029-0.016 0.053-0.033 0.076-0.052l-0.001 0.001c0.010-0.008 0.022-0.013 0.036-0.013h0zM25.984 22.28c0 0.002 0 0.005 0 0.008 0 0.090-0.019 0.175-0.053 0.253l0.002-0.004c-0.031 0.074-0.080 0.142-0.143 0.199s-0.14 0.101-0.224 0.131c-0.086 0.029-0.185 0.046-0.288 0.046s-0.202-0.017-0.295-0.048l0.006 0.002c-0.084-0.030-0.16-0.074-0.223-0.131-0.063-0.058-0.112-0.126-0.144-0.201-0.068-0.166-0.068-0.347 0-0.513 0.032-0.075 0.081-0.143 0.144-0.202 0.064-0.055 0.139-0.098 0.223-0.126 0.086-0.030 0.185-0.047 0.288-0.047s0.202 0.017 0.295 0.049l-0.006-0.002c0.084 0.030 0.16 0.074 0.224 0.131s0.111 0.125 0.143 0.199c0.035 0.082 0.053 0.17 0.051 0.258zM25.785 22.28c0-0.003 0-0.007 0-0.011 0-0.070-0.013-0.137-0.037-0.199l0.001 0.004c-0.021-0.057-0.056-0.109-0.101-0.154-0.044-0.042-0.099-0.076-0.16-0.097-0.063-0.021-0.135-0.034-0.21-0.034s-0.147 0.012-0.214 0.035l0.005-0.001c-0.061 0.022-0.116 0.055-0.16 0.097-0.046 0.044-0.081 0.097-0.102 0.154-0.023 0.061-0.036 0.132-0.036 0.206s0.013 0.145 0.038 0.21l-0.001-0.004c0.021 0.057 0.056 0.11 0.102 0.154 0.045 0.042 0.099 0.075 0.16 0.096 0.063 0.021 0.135 0.033 0.21 0.033s0.147-0.012 0.214-0.034l-0.005 0.001c0.061-0.021 0.116-0.054 0.16-0.096 0.045-0.045 0.080-0.097 0.101-0.154 0.023-0.058 0.036-0.124 0.036-0.194 0-0.004-0-0.008-0-0.012v0.001zM27.479 22.496l0.020 0.046c0.008-0.017 0.014-0.031 0.022-0.046 0.008-0.018 0.017-0.033 0.026-0.047l-0.001 0.002 0.485-0.765c0.009-0.013 0.018-0.021 0.027-0.024s0.021-0.004 0.033-0.004c0.002 0 0.005 0 0.007 0h0.143v1.245h-0.17v-0.954c-0-0.006-0.001-0.014-0.001-0.021s0-0.015 0.001-0.022l-0 0.001-0.487 0.776c-0.007 0.012-0.016 0.022-0.028 0.028l-0 0c-0.012 0.007-0.026 0.010-0.041 0.010-0 0-0.001 0-0.001 0h-0.027c-0 0-0.001 0-0.001 0-0.015 0-0.029-0.004-0.041-0.011l0 0c-0.012-0.007-0.022-0.016-0.028-0.028l-0-0-0.502-0.781v0.999h-0.164v-1.242h0.143c0.002-0 0.004-0 0.007-0 0.012 0 0.023 0.002 0.034 0.005l-0.001-0c0.011 0.005 0.021 0.013 0.026 0.024l0 0 0.495 0.766c0.009 0.013 0.017 0.027 0.024 0.043l0.001 0.002zM29.302 22.434v0.466h-0.19v-1.243h0.423c0.005-0 0.010-0 0.015-0 0.078 0 0.154 0.010 0.227 0.029l-0.006-0.001c0.061 0.015 0.118 0.042 0.167 0.077 0.042 0.034 0.075 0.075 0.095 0.122 0.022 0.051 0.033 0.105 0.032 0.159 0 0.001 0 0.003 0 0.005 0 0.056-0.013 0.109-0.036 0.156l0.001-0.002c-0.023 0.048-0.058 0.090-0.102 0.124-0.048 0.037-0.104 0.065-0.164 0.082l-0.003 0.001c-0.064 0.018-0.137 0.029-0.213 0.029-0.005 0-0.011-0-0.016-0h0.001l-0.23-0.003zM29.302 22.3h0.23c0.050 0.001 0.099-0.006 0.147-0.019 0.041-0.012 0.076-0.030 0.107-0.054l-0.001 0.001c0.027-0.022 0.049-0.049 0.064-0.081l0.001-0.001c0.014-0.030 0.023-0.065 0.023-0.102 0-0.001 0-0.002-0-0.003v0c0-0.004 0-0.008 0-0.013 0-0.032-0.007-0.062-0.020-0.090l0.001 0.001c-0.016-0.034-0.038-0.062-0.066-0.085l-0-0c-0.072-0.049-0.163-0.073-0.255-0.067h-0.23v0.512zM31.852 22.902h-0.15c-0.001 0-0.002 0-0.003 0-0.015 0-0.028-0.004-0.039-0.012l0 0c-0.010-0.007-0.019-0.017-0.024-0.028l-0-0-0.129-0.301h-0.648l-0.134 0.301c-0.005 0.012-0.013 0.021-0.023 0.028l-0 0c-0.011 0.008-0.025 0.012-0.040 0.012-0.001 0-0.002-0-0.003-0h-0.15l0.569-1.245h0.197l0.577 1.245zM30.913 22.439h0.535l-0.226-0.507c-0.015-0.032-0.030-0.071-0.041-0.111l-0.001-0.006-0.022 0.065c-0.007 0.022-0.015 0.039-0.022 0.056l0.002-0.004-0.224 0.506zM32.671 21.662c0.011 0.005 0.021 0.013 0.028 0.022l0 0 0.83 0.939v-0.967h0.17v1.245h-0.095c-0.001 0-0.002 0-0.003 0-0.013 0-0.026-0.003-0.037-0.008l0.001 0c-0.012-0.006-0.022-0.014-0.030-0.023l-0-0-0.829-0.938c0 0.006 0.001 0.014 0.001 0.021s-0 0.015-0.001 0.022l0-0.001v0.925h-0.17v-1.245h0.101c0.001-0 0.002-0 0.002-0 0.011 0 0.022 0.002 0.032 0.006l-0.001-0zM35.097 22.407v0.494h-0.19v-0.494l-0.525-0.75h0.17c0.001-0 0.003-0 0.004-0 0.014 0 0.026 0.004 0.037 0.011l-0-0c0.010 0.008 0.019 0.017 0.025 0.028l0 0 0.328 0.484c0.013 0.021 0.025 0.040 0.034 0.058s0.017 0.035 0.024 0.053l0.025-0.054c0.009-0.020 0.020-0.039 0.032-0.057l0.323-0.487c0.007-0.010 0.015-0.019 0.024-0.026l0-0c0.010-0.008 0.023-0.012 0.038-0.012 0.001 0 0.002 0 0.003 0h0.172l-0.526 0.753zM27.385 19.567c0.082 0.009 0.166 0.017 0.25 0.023 1.28-0.497 2.362-1.311 3.112-2.34s1.134-2.227 1.105-3.445l-1.41-1.225c0.287 1.296 0.153 2.637-0.387 3.871s-1.465 2.313-2.67 3.117z"></path>
<path d="M26.881 19.51l0.038 0.007c1.288-0.801 2.271-1.919 2.82-3.209s0.64-2.695 0.261-4.031l-2.009-1.745c0.812 1.434 1.139 3.040 0.943 4.629s-0.908 3.098-2.053 4.35zM33.693 15.244c-0.341 1.338-1.17 2.545-2.363 3.441-0.349 0.263-0.724 0.498-1.123 0.7 0.972-0.248 1.865-0.687 2.61-1.282s1.324-1.332 1.69-2.152l-0.815-0.707z"></path>
<path d="M33.374 15.047l-1.16-1.008c-0.022 1.149-0.398 2.272-1.089 3.252s-1.671 1.781-2.838 2.321h0.006c0.274-0 0.545-0.015 0.812-0.043l-0.033 0.003c1.091-0.387 2.055-1.003 2.806-1.792s1.265-1.728 1.497-2.732zM27.049 9.795l-1.384-1.204c-1.237 0.415-2.301 1.145-3.052 2.095s-1.156 2.074-1.159 3.226c0.005 1.273 0.498 2.508 1.401 3.511s2.166 1.714 3.588 2.022c1.269-1.343 2.012-3.003 2.121-4.739s-0.422-3.456-1.515-4.911zM36.57 14.862c-0.005-1.51-0.698-2.958-1.927-4.026s-2.895-1.67-4.634-1.674c-0.803-0.001-1.6 0.128-2.349 0.38l8.471 7.36c0.29-0.651 0.439-1.342 0.438-2.040z"></path>
</svg>
