<!-- Generated by IcoMoon.io -->
<svg version="1.1" xmlns="http://www.w3.org/2000/svg" width="175" height="32" viewBox="0 0 175 32">
<title>WebStudio-5-1</title>
<path fill="#2196f3" d="M14.050 0.677h3.774l2.377 6.983 2.377-6.983h3.803l-3.595 9.598 2.674 6.745 5.973-16.402h4.457l-8.587 21.097h-3.447l-3.655-8.855-3.655 8.855h-3.447l-8.528-21.097h4.398l6.002 16.402 2.615-6.745-3.536-9.598zM43.862 22.011c-1.248 0-2.377-0.208-3.387-0.624-1.010-0.436-1.872-1.020-2.585-1.753s-1.268-1.585-1.664-2.555c-0.376-0.971-0.565-1.991-0.565-3.061 0-1.109 0.188-2.149 0.565-3.12 0.376-0.991 0.921-1.852 1.634-2.585 0.713-0.753 1.575-1.347 2.585-1.783 1.030-0.436 2.179-0.654 3.447-0.654s2.397 0.218 3.387 0.654c1.010 0.436 1.862 1.020 2.555 1.753 0.713 0.733 1.248 1.585 1.605 2.555 0.376 0.971 0.565 1.981 0.565 3.031 0 0.258-0.010 0.505-0.030 0.743 0 0.238-0.020 0.436-0.059 0.594h-12.034c0.059 0.614 0.208 1.159 0.446 1.634s0.545 0.881 0.921 1.218c0.376 0.337 0.802 0.594 1.278 0.773s0.971 0.267 1.486 0.267c0.792 0 1.535-0.188 2.229-0.565 0.713-0.396 1.199-0.911 1.456-1.545l3.417 0.951c-0.575 1.189-1.496 2.169-2.763 2.942-1.248 0.753-2.744 1.129-4.487 1.129zM47.903 12.622c-0.099-1.169-0.535-2.1-1.307-2.793-0.753-0.713-1.674-1.070-2.763-1.070-0.535 0-1.040 0.099-1.515 0.297-0.472 0.187-0.877 0.448-1.22 0.774l0.002-0.002c-0.357 0.337-0.654 0.743-0.891 1.218-0.218 0.475-0.347 1-0.386 1.575h8.082zM64.176 22.011c-1.189 0-2.248-0.267-3.179-0.802s-1.664-1.268-2.199-2.199v2.704h-3.477v-21.691h3.982v8.855c0.555-0.951 1.278-1.684 2.169-2.199 0.911-0.535 1.971-0.802 3.179-0.802 1.010 0 1.931 0.218 2.763 0.654s1.545 1.020 2.139 1.753c0.614 0.733 1.080 1.595 1.397 2.585 0.337 0.991 0.505 2.030 0.505 3.12 0 1.129-0.188 2.179-0.565 3.15-0.357 0.971-0.862 1.823-1.515 2.555-0.654 0.713-1.426 1.278-2.318 1.694s-1.852 0.624-2.882 0.624zM63.076 18.624c0.634 0 1.218-0.119 1.753-0.357 0.535-0.258 0.99-0.594 1.367-1.010s0.664-0.901 0.862-1.456c0.218-0.555 0.327-1.149 0.327-1.783s-0.099-1.238-0.297-1.813c-0.198-0.575-0.485-1.080-0.862-1.515-0.357-0.436-0.782-0.783-1.278-1.040s-1.040-0.386-1.634-0.386c-0.891 0-1.694 0.297-2.407 0.891-0.693 0.575-1.228 1.288-1.605 2.139v3.714c0.139 0.396 0.337 0.753 0.594 1.070 0.277 0.317 0.584 0.594 0.921 0.832 0.337 0.218 0.703 0.396 1.099 0.535 0.396 0.119 0.782 0.178 1.159 0.178z"></path>
<path fill="#fff" d="M88 6.144c-0.139-0.139-0.396-0.327-0.773-0.565-0.357-0.238-0.802-0.465-1.337-0.683-0.515-0.238-1.080-0.436-1.694-0.594-0.561-0.151-1.204-0.238-1.869-0.238-0.001 0-0.002 0-0.004 0h0c-1.129 0-1.971 0.208-2.526 0.624s-0.832 1-0.832 1.753c0 0.436 0.099 0.802 0.297 1.099 0.218 0.277 0.525 0.525 0.921 0.743s0.891 0.416 1.486 0.594c0.614 0.178 1.317 0.367 2.11 0.565 1.030 0.277 1.961 0.575 2.793 0.891 0.852 0.317 1.565 0.713 2.139 1.189 0.594 0.475 1.050 1.050 1.367 1.723 0.317 0.654 0.475 1.466 0.475 2.437 0 1.129-0.218 2.1-0.654 2.912-0.416 0.792-0.99 1.436-1.723 1.931-0.713 0.495-1.545 0.862-2.496 1.099-0.931 0.218-1.912 0.327-2.942 0.327-1.585 0-3.15-0.238-4.695-0.713s-2.932-1.149-4.16-2.021l1.813-3.536c0.178 0.178 0.495 0.416 0.951 0.713 0.475 0.277 1.030 0.565 1.664 0.862 0.634 0.277 1.337 0.515 2.11 0.713s1.565 0.297 2.377 0.297c2.258 0 3.387-0.723 3.387-2.169 0-0.456-0.129-0.842-0.386-1.159s-0.624-0.594-1.099-0.832-1.050-0.456-1.723-0.654c-0.674-0.198-1.426-0.416-2.258-0.654-1.010-0.277-1.892-0.575-2.645-0.891-0.733-0.337-1.347-0.723-1.842-1.159-0.495-0.456-0.872-0.971-1.129-1.545-0.238-0.594-0.357-1.298-0.357-2.11 0-1.070 0.198-2.021 0.594-2.853s0.941-1.525 1.634-2.080c0.713-0.555 1.535-0.971 2.466-1.248 0.931-0.297 1.931-0.446 3.001-0.446 1.486 0 2.853 0.238 4.101 0.713 1.248 0.456 2.338 1 3.269 1.634l-1.813 3.328zM103.316 20.912c-0.535 0.238-1.189 0.475-1.961 0.713s-1.585 0.357-2.437 0.357c-0.555 0-1.080-0.069-1.575-0.208-0.475-0.139-0.901-0.357-1.278-0.654-0.357-0.317-0.644-0.713-0.862-1.189-0.218-0.495-0.327-1.090-0.327-1.783v-8.944h-2.050v-3.061h2.050v-5.051h3.982v5.051h3.269v3.061h-3.269v7.607c0 0.555 0.139 0.951 0.416 1.189 0.297 0.218 0.654 0.327 1.070 0.327s0.822-0.069 1.218-0.208c0.396-0.139 0.713-0.258 0.951-0.357l0.802 3.15zM111.035 22.011c-1.605 0-2.823-0.515-3.655-1.545s-1.248-2.555-1.248-4.576v-9.746h3.982v8.885c0 2.397 0.862 3.595 2.585 3.595 0.773 0 1.515-0.228 2.229-0.683 0.733-0.475 1.327-1.189 1.783-2.139v-9.657h3.982v10.994c0 0.416 0.069 0.713 0.208 0.891 0.158 0.178 0.406 0.277 0.743 0.297v3.387c-0.397 0.079-0.734 0.129-1.010 0.149-0.212 0.018-0.46 0.029-0.711 0.030h-0.002c-0.713 0-1.298-0.159-1.753-0.475-0.437-0.337-0.694-0.792-0.773-1.367l-0.089-1.248c-0.694 1.070-1.585 1.872-2.674 2.407s-2.288 0.802-3.596 0.802zM131.989 22.011c-1.070 0-2.061-0.208-2.971-0.624s-1.694-0.991-2.347-1.723c-0.654-0.733-1.169-1.585-1.545-2.555-0.357-0.991-0.535-2.050-0.535-3.179s0.168-2.179 0.505-3.15c0.357-0.971 0.842-1.822 1.456-2.555s1.347-1.307 2.199-1.723c0.851-0.416 1.783-0.624 2.793-0.624 1.149 0 2.179 0.277 3.090 0.832 0.931 0.555 1.654 1.278 2.169 2.169v-8.855h3.982v17.115c0 0.416 0.070 0.713 0.208 0.891s0.376 0.277 0.713 0.297v3.387c-0.694 0.139-1.258 0.208-1.694 0.208-0.713 0-1.297-0.178-1.753-0.535s-0.713-0.822-0.773-1.397l-0.089-0.981c-0.575 0.991-1.357 1.743-2.347 2.258-0.97 0.495-1.991 0.743-3.061 0.743zM133.029 18.624c0.376 0 0.762-0.059 1.159-0.178 0.397-0.139 0.762-0.327 1.099-0.565s0.634-0.515 0.891-0.832c0.278-0.317 0.486-0.664 0.624-1.040v-3.714c-0.168-0.457-0.4-0.851-0.688-1.195l0.005 0.006c-0.278-0.376-0.605-0.693-0.981-0.951-0.333-0.262-0.716-0.482-1.128-0.643l-0.030-0.010c-0.397-0.159-0.792-0.238-1.189-0.238-0.594 0-1.149 0.129-1.664 0.386-0.495 0.258-0.921 0.614-1.278 1.070-0.357 0.436-0.634 0.941-0.832 1.515-0.188 0.529-0.297 1.138-0.297 1.774 0 0.003 0 0.007 0 0.010v-0.001c0 0.654 0.109 1.258 0.327 1.813s0.515 1.040 0.891 1.456 0.822 0.743 1.337 0.981c0.535 0.238 1.119 0.357 1.753 0.357zM145.584 21.714v-15.57h3.982v15.57h-3.982zM145.584 3.975v-3.952h3.982v3.952h-3.982zM161.24 22.011c-1.269 0-2.407-0.218-3.417-0.654s-1.872-1.020-2.585-1.753c-0.694-0.753-1.229-1.614-1.605-2.585-0.377-0.971-0.565-1.991-0.565-3.061 0-1.089 0.187-2.12 0.565-3.090 0.376-0.971 0.911-1.822 1.605-2.555 0.713-0.753 1.575-1.347 2.585-1.783s2.149-0.654 3.417-0.654c1.267 0 2.397 0.218 3.387 0.654 1.010 0.436 1.862 1.030 2.555 1.783 0.713 0.733 1.257 1.585 1.634 2.555 0.376 0.971 0.565 2.001 0.565 3.090 0 1.070-0.189 2.090-0.565 3.061-0.377 0.971-0.912 1.832-1.605 2.585-0.694 0.733-1.545 1.317-2.555 1.753s-2.15 0.654-3.417 0.654zM157.169 13.959c0 0.693 0.098 1.327 0.297 1.902 0.217 0.555 0.505 1.040 0.862 1.456 0.376 0.416 0.811 0.743 1.307 0.981 0.495 0.218 1.030 0.327 1.605 0.327 0.574 0 1.109-0.109 1.605-0.327 0.495-0.238 0.921-0.565 1.278-0.981 0.376-0.416 0.663-0.911 0.862-1.486 0.217-0.575 0.327-1.208 0.327-1.902 0-0.674-0.11-1.297-0.327-1.872-0.199-0.575-0.486-1.070-0.862-1.486-0.357-0.416-0.783-0.733-1.278-0.951-0.496-0.238-1.031-0.357-1.605-0.357-0.575 0-1.11 0.119-1.605 0.357-0.496 0.238-0.931 0.565-1.307 0.981-0.357 0.416-0.645 0.911-0.862 1.486-0.199 0.575-0.297 1.198-0.297 1.872z"></path>
</svg>
